<?xml version="1.0" encoding="UTF-8" standalone="no"?>
<!DOCTYPE svg PUBLIC "-//W3C//DTD SVG 1.1//EN"
 "http://www.w3.org/Graphics/SVG/1.1/DTD/svg11.dtd">
<!-- Generated by graphviz version 2.36.0 (20140111.2315)
 -->
<!-- Title: controllers_diagram Pages: 1 -->
<svg width="682pt" height="645pt"
 viewBox="0.00 0.00 682.00 645.00" xmlns="http://www.w3.org/2000/svg" xmlns:xlink="http://www.w3.org/1999/xlink">
<g id="graph0" class="graph" transform="scale(1 1) rotate(0) translate(4 641)">
<title>controllers_diagram</title>
<polygon fill="none" stroke="none" points="-4,4 -4,-641 678,-641 678,4 -4,4"/>
<!-- _diagram_info -->
<g id="node1" class="node"><title>_diagram_info</title>
<text text-anchor="start" x="360" y="-127.6" font-family="Times,serif" font-size="13.00">Controllers diagram</text>
<text text-anchor="start" x="360" y="-113.6" font-family="Times,serif" font-size="13.00">Date: Aug 04 2020 &#45; 18:58</text>
<text text-anchor="start" x="360" y="-99.6" font-family="Times,serif" font-size="13.00">Migration version: 20200731115617</text>
<text text-anchor="start" x="360" y="-85.6" font-family="Times,serif" font-size="13.00">Generated by RailRoady 1.5.3</text>
<text text-anchor="start" x="360" y="-71.6" font-family="Times,serif" font-size="13.00">http://railroady.prestonlee.com</text>
</g>
<!-- LikesController -->
<g id="node2" class="node"><title>LikesController</title>
<path fill="none" stroke="black" d="M92,-208.5C92,-208.5 170,-208.5 170,-208.5 176,-208.5 182,-214.5 182,-220.5 182,-220.5 182,-349.5 182,-349.5 182,-355.5 176,-361.5 170,-361.5 170,-361.5 92,-361.5 92,-361.5 86,-361.5 80,-355.5 80,-349.5 80,-349.5 80,-220.5 80,-220.5 80,-214.5 86,-208.5 92,-208.5"/>
<text text-anchor="middle" x="131" y="-346.3" font-family="Times,serif" font-size="14.00">LikesController</text>
<polyline fill="none" stroke="black" points="80,-338.5 182,-338.5 "/>
<text text-anchor="start" x="88" y="-323.3" font-family="Times,serif" font-size="14.00">create</text>
<text text-anchor="start" x="88" y="-308.3" font-family="Times,serif" font-size="14.00">destroy</text>
<polyline fill="none" stroke="black" points="80,-300.5 182,-300.5 "/>
<polyline fill="none" stroke="black" points="80,-276.5 182,-276.5 "/>
<text text-anchor="start" x="88" y="-261.3" font-family="Times,serif" font-size="14.00">_layout</text>
<text text-anchor="start" x="88" y="-246.3" font-family="Times,serif" font-size="14.00">already_liked?</text>
<text text-anchor="start" x="88" y="-231.3" font-family="Times,serif" font-size="14.00">find_like</text>
<text text-anchor="start" x="88" y="-216.3" font-family="Times,serif" font-size="14.00">find_post</text>
</g>
<!-- ApplicationController -->
<g id="node3" class="node"><title>ApplicationController</title>
<path fill="none" stroke="black" d="M492,-176.5C492,-176.5 662,-176.5 662,-176.5 668,-176.5 674,-182.5 674,-188.5 674,-188.5 674,-257.5 674,-257.5 674,-263.5 668,-269.5 662,-269.5 662,-269.5 492,-269.5 492,-269.5 486,-269.5 480,-263.5 480,-257.5 480,-257.5 480,-188.5 480,-188.5 480,-182.5 486,-176.5 492,-176.5"/>
<text text-anchor="middle" x="577" y="-254.3" font-family="Times,serif" font-size="14.00">ApplicationController</text>
<polyline fill="none" stroke="black" points="480,-246.5 674,-246.5 "/>
<polyline fill="none" stroke="black" points="480,-222.5 674,-222.5 "/>
<text text-anchor="start" x="488" y="-207.3" font-family="Times,serif" font-size="14.00">configure_permitted_parameters</text>
<polyline fill="none" stroke="black" points="480,-199.5 674,-199.5 "/>
<text text-anchor="start" x="488" y="-184.3" font-family="Times,serif" font-size="14.00">_layout</text>
</g>
<!-- ProfilesController -->
<g id="node4" class="node"><title>ProfilesController</title>
<path fill="none" stroke="black" d="M44,-400.5C44,-400.5 134,-400.5 134,-400.5 140,-400.5 146,-406.5 146,-412.5 146,-412.5 146,-481.5 146,-481.5 146,-487.5 140,-493.5 134,-493.5 134,-493.5 44,-493.5 44,-493.5 38,-493.5 32,-487.5 32,-481.5 32,-481.5 32,-412.5 32,-412.5 32,-406.5 38,-400.5 44,-400.5"/>
<text text-anchor="middle" x="89" y="-478.3" font-family="Times,serif" font-size="14.00">ProfilesController</text>
<polyline fill="none" stroke="black" points="32,-470.5 146,-470.5 "/>
<text text-anchor="start" x="40" y="-455.3" font-family="Times,serif" font-size="14.00">show</text>
<polyline fill="none" stroke="black" points="32,-447.5 146,-447.5 "/>
<polyline fill="none" stroke="black" points="32,-423.5 146,-423.5 "/>
<text text-anchor="start" x="40" y="-408.3" font-family="Times,serif" font-size="14.00">_layout</text>
</g>
<!-- RepliesController -->
<g id="node5" class="node"><title>RepliesController</title>
<path fill="none" stroke="black" d="M220,-128.5C220,-128.5 314,-128.5 314,-128.5 320,-128.5 326,-134.5 326,-140.5 326,-140.5 326,-359.5 326,-359.5 326,-365.5 320,-371.5 314,-371.5 314,-371.5 220,-371.5 220,-371.5 214,-371.5 208,-365.5 208,-359.5 208,-359.5 208,-140.5 208,-140.5 208,-134.5 214,-128.5 220,-128.5"/>
<text text-anchor="middle" x="267" y="-356.3" font-family="Times,serif" font-size="14.00">RepliesController</text>
<polyline fill="none" stroke="black" points="208,-348.5 326,-348.5 "/>
<text text-anchor="start" x="216" y="-333.3" font-family="Times,serif" font-size="14.00">create</text>
<text text-anchor="start" x="216" y="-318.3" font-family="Times,serif" font-size="14.00">destroy</text>
<text text-anchor="start" x="216" y="-303.3" font-family="Times,serif" font-size="14.00">edit</text>
<text text-anchor="start" x="216" y="-288.3" font-family="Times,serif" font-size="14.00">new</text>
<text text-anchor="start" x="216" y="-273.3" font-family="Times,serif" font-size="14.00">show</text>
<text text-anchor="start" x="216" y="-258.3" font-family="Times,serif" font-size="14.00">update</text>
<polyline fill="none" stroke="black" points="208,-250.5 326,-250.5 "/>
<polyline fill="none" stroke="black" points="208,-226.5 326,-226.5 "/>
<text text-anchor="start" x="216" y="-211.3" font-family="Times,serif" font-size="14.00">_layout</text>
<text text-anchor="start" x="216" y="-196.3" font-family="Times,serif" font-size="14.00">create_notification</text>
<text text-anchor="start" x="216" y="-181.3" font-family="Times,serif" font-size="14.00">owned_reply</text>
<text text-anchor="start" x="216" y="-166.3" font-family="Times,serif" font-size="14.00">reply_params</text>
<text text-anchor="start" x="216" y="-151.3" font-family="Times,serif" font-size="14.00">set_post</text>
<text text-anchor="start" x="216" y="-136.3" font-family="Times,serif" font-size="14.00">set_reply</text>
</g>
<!-- OmniauthCallbacksController -->
<g id="node6" class="node"><title>OmniauthCallbacksController</title>
<path fill="none" stroke="black" d="M492,-304.5C492,-304.5 648,-304.5 648,-304.5 654,-304.5 660,-310.5 660,-316.5 660,-316.5 660,-400.5 660,-400.5 660,-406.5 654,-412.5 648,-412.5 648,-412.5 492,-412.5 492,-412.5 486,-412.5 480,-406.5 480,-400.5 480,-400.5 480,-316.5 480,-316.5 480,-310.5 486,-304.5 492,-304.5"/>
<text text-anchor="middle" x="570" y="-397.3" font-family="Times,serif" font-size="14.00">OmniauthCallbacksController</text>
<polyline fill="none" stroke="black" points="480,-389.5 660,-389.5 "/>
<text text-anchor="start" x="488" y="-374.3" font-family="Times,serif" font-size="14.00">facebook</text>
<text text-anchor="start" x="488" y="-359.3" font-family="Times,serif" font-size="14.00">failure</text>
<polyline fill="none" stroke="black" points="480,-351.5 660,-351.5 "/>
<polyline fill="none" stroke="black" points="480,-327.5 660,-327.5 "/>
<text text-anchor="start" x="488" y="-312.3" font-family="Times,serif" font-size="14.00">_layout</text>
</g>
<!-- NotificationsController -->
<g id="node7" class="node"><title>NotificationsController</title>
<path fill="none" stroke="black" d="M12,-528.5C12,-528.5 131,-528.5 131,-528.5 137,-528.5 143,-534.5 143,-540.5 143,-540.5 143,-624.5 143,-624.5 143,-630.5 137,-636.5 131,-636.5 131,-636.5 12,-636.5 12,-636.5 6,-636.5 0,-630.5 0,-624.5 0,-624.5 0,-540.5 0,-540.5 0,-534.5 6,-528.5 12,-528.5"/>
<text text-anchor="middle" x="71.5" y="-621.3" font-family="Times,serif" font-size="14.00">NotificationsController</text>
<polyline fill="none" stroke="black" points="0,-613.5 143,-613.5 "/>
<text text-anchor="start" x="8" y="-598.3" font-family="Times,serif" font-size="14.00">index</text>
<text text-anchor="start" x="8" y="-583.3" font-family="Times,serif" font-size="14.00">link_through</text>
<polyline fill="none" stroke="black" points="0,-575.5 143,-575.5 "/>
<polyline fill="none" stroke="black" points="0,-551.5 143,-551.5 "/>
<text text-anchor="start" x="8" y="-536.3" font-family="Times,serif" font-size="14.00">_layout</text>
</g>
<!-- PublicController -->
<g id="node8" class="node"><title>PublicController</title>
<path fill="none" stroke="black" d="M220,-0.5C220,-0.5 303,-0.5 303,-0.5 309,-0.5 315,-6.5 315,-12.5 315,-12.5 315,-81.5 315,-81.5 315,-87.5 309,-93.5 303,-93.5 303,-93.5 220,-93.5 220,-93.5 214,-93.5 208,-87.5 208,-81.5 208,-81.5 208,-12.5 208,-12.5 208,-6.5 214,-0.5 220,-0.5"/>
<text text-anchor="middle" x="261.5" y="-78.3" font-family="Times,serif" font-size="14.00">PublicController</text>
<polyline fill="none" stroke="black" points="208,-70.5 315,-70.5 "/>
<text text-anchor="start" x="216" y="-55.3" font-family="Times,serif" font-size="14.00">main</text>
<polyline fill="none" stroke="black" points="208,-47.5 315,-47.5 "/>
<polyline fill="none" stroke="black" points="208,-23.5 315,-23.5 "/>
<text text-anchor="start" x="216" y="-8.3" font-family="Times,serif" font-size="14.00">_layout</text>
</g>
<!-- MessagesController -->
<g id="node9" class="node"><title>MessagesController</title>
<path fill="none" stroke="black" d="M492,-448.5C492,-448.5 593,-448.5 593,-448.5 599,-448.5 605,-454.5 605,-460.5 605,-460.5 605,-604.5 605,-604.5 605,-610.5 599,-616.5 593,-616.5 593,-616.5 492,-616.5 492,-616.5 486,-616.5 480,-610.5 480,-604.5 480,-604.5 480,-460.5 480,-460.5 480,-454.5 486,-448.5 492,-448.5"/>
<text text-anchor="middle" x="542.5" y="-601.3" font-family="Times,serif" font-size="14.00">MessagesController</text>
<polyline fill="none" stroke="black" points="480,-593.5 605,-593.5 "/>
<text text-anchor="start" x="488" y="-578.3" font-family="Times,serif" font-size="14.00">create</text>
<text text-anchor="start" x="488" y="-563.3" font-family="Times,serif" font-size="14.00">index</text>
<text text-anchor="start" x="488" y="-548.3" font-family="Times,serif" font-size="14.00">new</text>
<polyline fill="none" stroke="black" points="480,-540.5 605,-540.5 "/>
<polyline fill="none" stroke="black" points="480,-516.5 605,-516.5 "/>
<text text-anchor="start" x="488" y="-501.3" font-family="Times,serif" font-size="14.00">_layout</text>
<text text-anchor="start" x="488" y="-486.3" font-family="Times,serif" font-size="14.00">find_conversation</text>
<text text-anchor="start" x="488" y="-471.3" font-family="Times,serif" font-size="14.00">message_params</text>
<text text-anchor="start" x="488" y="-456.3" font-family="Times,serif" font-size="14.00">require_permission</text>
</g>
<!-- RegistrationsController -->
<g id="node10" class="node"><title>RegistrationsController</title>
<path fill="none" stroke="black" d="M44,-48.5C44,-48.5 163,-48.5 163,-48.5 169,-48.5 175,-54.5 175,-60.5 175,-60.5 175,-160.5 175,-160.5 175,-166.5 169,-172.5 163,-172.5 163,-172.5 44,-172.5 44,-172.5 38,-172.5 32,-166.5 32,-160.5 32,-160.5 32,-60.5 32,-60.5 32,-54.5 38,-48.5 44,-48.5"/>
<text text-anchor="middle" x="103.5" y="-157.3" font-family="Times,serif" font-size="14.00">RegistrationsController</text>
<polyline fill="none" stroke="black" points="32,-149.5 175,-149.5 "/>
<polyline fill="none" stroke="black" points="32,-125.5 175,-125.5 "/>
<polyline fill="none" stroke="black" points="32,-101.5 175,-101.5 "/>
<text text-anchor="start" x="40" y="-86.3" font-family="Times,serif" font-size="14.00">_layout</text>
<text text-anchor="start" x="40" y="-71.3" font-family="Times,serif" font-size="14.00">acount_update_params</text>
<text text-anchor="start" x="40" y="-56.3" font-family="Times,serif" font-size="14.00">sign_up_params</text>
</g>
<!-- ConversationsController -->
<g id="node11" class="node"><title>ConversationsController</title>
<path fill="none" stroke="black" d="M188,-400.5C188,-400.5 313,-400.5 313,-400.5 319,-400.5 325,-406.5 325,-412.5 325,-412.5 325,-541.5 325,-541.5 325,-547.5 319,-553.5 313,-553.5 313,-553.5 188,-553.5 188,-553.5 182,-553.5 176,-547.5 176,-541.5 176,-541.5 176,-412.5 176,-412.5 176,-406.5 182,-400.5 188,-400.5"/>
<text text-anchor="middle" x="250.5" y="-538.3" font-family="Times,serif" font-size="14.00">ConversationsController</text>
<polyline fill="none" stroke="black" points="176,-530.5 325,-530.5 "/>
<text text-anchor="start" x="184" y="-515.3" font-family="Times,serif" font-size="14.00">create</text>
<text text-anchor="start" x="184" y="-500.3" font-family="Times,serif" font-size="14.00">index</text>
<text text-anchor="start" x="184" y="-485.3" font-family="Times,serif" font-size="14.00">secret</text>
<polyline fill="none" stroke="black" points="176,-477.5 325,-477.5 "/>
<polyline fill="none" stroke="black" points="176,-453.5 325,-453.5 "/>
<text text-anchor="start" x="184" y="-438.3" font-family="Times,serif" font-size="14.00">_layout</text>
<text text-anchor="start" x="184" y="-423.3" font-family="Times,serif" font-size="14.00">conversation_params</text>
<text text-anchor="start" x="184" y="-408.3" font-family="Times,serif" font-size="14.00">isAdmin</text>
</g>
<!-- PostsController -->
<g id="node12" class="node"><title>PostsController</title>
<path fill="none" stroke="black" d="M364,-176.5C364,-176.5 441,-176.5 441,-176.5 447,-176.5 453,-182.5 453,-188.5 453,-188.5 453,-422.5 453,-422.5 453,-428.5 447,-434.5 441,-434.5 441,-434.5 364,-434.5 364,-434.5 358,-434.5 352,-428.5 352,-422.5 352,-422.5 352,-188.5 352,-188.5 352,-182.5 358,-176.5 364,-176.5"/>
<text text-anchor="middle" x="402.5" y="-419.3" font-family="Times,serif" font-size="14.00">PostsController</text>
<polyline fill="none" stroke="black" points="352,-411.5 453,-411.5 "/>
<text text-anchor="start" x="360" y="-396.3" font-family="Times,serif" font-size="14.00">create</text>
<text text-anchor="start" x="360" y="-381.3" font-family="Times,serif" font-size="14.00">destroy</text>
<text text-anchor="start" x="360" y="-366.3" font-family="Times,serif" font-size="14.00">edit</text>
<text text-anchor="start" x="360" y="-351.3" font-family="Times,serif" font-size="14.00">geolocation</text>
<text text-anchor="start" x="360" y="-336.3" font-family="Times,serif" font-size="14.00">index</text>
<text text-anchor="start" x="360" y="-321.3" font-family="Times,serif" font-size="14.00">new</text>
<text text-anchor="start" x="360" y="-306.3" font-family="Times,serif" font-size="14.00">search</text>
<text text-anchor="start" x="360" y="-291.3" font-family="Times,serif" font-size="14.00">show</text>
<text text-anchor="start" x="360" y="-276.3" font-family="Times,serif" font-size="14.00">update</text>
<polyline fill="none" stroke="black" points="352,-268.5 453,-268.5 "/>
<polyline fill="none" stroke="black" points="352,-244.5 453,-244.5 "/>
<text text-anchor="start" x="360" y="-229.3" font-family="Times,serif" font-size="14.00">_layout</text>
<text text-anchor="start" x="360" y="-214.3" font-family="Times,serif" font-size="14.00">owned_post</text>
<text text-anchor="start" x="360" y="-199.3" font-family="Times,serif" font-size="14.00">post_params</text>
<text text-anchor="start" x="360" y="-184.3" font-family="Times,serif" font-size="14.00">set_post</text>
</g>
</g>
</svg>
