<?xml version="1.0" encoding="UTF-8" standalone="no"?>
<!DOCTYPE svg PUBLIC "-//W3C//DTD SVG 1.1//EN"
 "http://www.w3.org/Graphics/SVG/1.1/DTD/svg11.dtd">
<!-- Generated by graphviz version 2.36.0 (20140111.2315)
 -->
<!-- Title: models_diagram Pages: 1 -->
<svg width="649pt" height="912pt"
 viewBox="0.00 0.00 649.00 912.00" xmlns="http://www.w3.org/2000/svg" xmlns:xlink="http://www.w3.org/1999/xlink">
<g id="graph0" class="graph" transform="scale(1 1) rotate(0) translate(4 908)">
<title>models_diagram</title>
<polygon fill="none" stroke="none" points="-4,4 -4,-908 645,-908 645,4 -4,4"/>
<!-- _diagram_info -->
<g id="node1" class="node"><title>_diagram_info</title>
<text text-anchor="start" x="19" y="-874.6" font-family="Times,serif" font-size="13.00">Models diagram</text>
<text text-anchor="start" x="19" y="-860.6" font-family="Times,serif" font-size="13.00">Date: Aug 04 2020 &#45; 18:58</text>
<text text-anchor="start" x="19" y="-846.6" font-family="Times,serif" font-size="13.00">Migration version: 20200731115617</text>
<text text-anchor="start" x="19" y="-832.6" font-family="Times,serif" font-size="13.00">Generated by RailRoady 1.5.3</text>
<text text-anchor="start" x="19" y="-818.6" font-family="Times,serif" font-size="13.00">http://railroady.prestonlee.com</text>
</g>
<!-- Conversation -->
<g id="node2" class="node"><title>Conversation</title>
<path fill="none" stroke="black" d="M255.5,-797C255.5,-797 362.5,-797 362.5,-797 368.5,-797 374.5,-803 374.5,-809 374.5,-809 374.5,-891 374.5,-891 374.5,-897 368.5,-903 362.5,-903 362.5,-903 255.5,-903 255.5,-903 249.5,-903 243.5,-897 243.5,-891 243.5,-891 243.5,-809 243.5,-809 243.5,-803 249.5,-797 255.5,-797"/>
<text text-anchor="middle" x="309" y="-887.8" font-family="Times,serif" font-size="14.00">Conversation</text>
<polyline fill="none" stroke="black" points="243.5,-880 374.5,-880 "/>
<text text-anchor="start" x="251.5" y="-864.8" font-family="Times,serif" font-size="14.00">id :integer</text>
<text text-anchor="start" x="251.5" y="-849.8" font-family="Times,serif" font-size="14.00">sender_id :integer</text>
<text text-anchor="start" x="251.5" y="-834.8" font-family="Times,serif" font-size="14.00">recipient_id :integer</text>
<text text-anchor="start" x="251.5" y="-819.8" font-family="Times,serif" font-size="14.00">created_at :datetime</text>
<text text-anchor="start" x="251.5" y="-804.8" font-family="Times,serif" font-size="14.00">updated_at :datetime</text>
</g>
<!-- Message -->
<g id="node4" class="node"><title>Message</title>
<path fill="none" stroke="black" d="M12,-636.5C12,-636.5 136,-636.5 136,-636.5 142,-636.5 148,-642.5 148,-648.5 148,-648.5 148,-745.5 148,-745.5 148,-751.5 142,-757.5 136,-757.5 136,-757.5 12,-757.5 12,-757.5 6,-757.5 0,-751.5 0,-745.5 0,-745.5 0,-648.5 0,-648.5 0,-642.5 6,-636.5 12,-636.5"/>
<text text-anchor="middle" x="74" y="-742.3" font-family="Times,serif" font-size="14.00">Message</text>
<polyline fill="none" stroke="black" points="0,-734.5 148,-734.5 "/>
<text text-anchor="start" x="8" y="-719.3" font-family="Times,serif" font-size="14.00">id :integer</text>
<text text-anchor="start" x="8" y="-704.3" font-family="Times,serif" font-size="14.00">body :text</text>
<text text-anchor="start" x="8" y="-689.3" font-family="Times,serif" font-size="14.00">conversation_id :integer</text>
<text text-anchor="start" x="8" y="-674.3" font-family="Times,serif" font-size="14.00">account_id :integer</text>
<text text-anchor="start" x="8" y="-659.3" font-family="Times,serif" font-size="14.00">created_at :datetime</text>
<text text-anchor="start" x="8" y="-644.3" font-family="Times,serif" font-size="14.00">updated_at :datetime</text>
</g>
<!-- Conversation&#45;&gt;Message -->
<g id="edge1" class="edge"><title>Conversation&#45;&gt;Message</title>
<path fill="none" stroke="#ef3bc0" d="M236.581,-798.154C235.382,-797.425 234.188,-796.706 233,-796 200.537,-776.704 189.298,-777.571 157,-758 156.91,-757.945 156.819,-757.891 156.729,-757.836"/>
<ellipse fill="none" stroke="#ef3bc0" cx="240.079" cy="-800.327" rx="4.00002" ry="4.00002"/>
<polygon fill="#ef3bc0" stroke="#ef3bc0" points="156.751,-757.85 150.65,-748.738 152.509,-755.203 148.267,-752.556 148.267,-752.556 148.267,-752.556 152.509,-755.203 145.885,-756.374 156.751,-757.85 156.751,-757.85"/>
</g>
<!-- Role -->
<g id="node6" class="node"><title>Role</title>
<path fill="none" stroke="black" d="M178,-636.5C178,-636.5 294,-636.5 294,-636.5 300,-636.5 306,-642.5 306,-648.5 306,-648.5 306,-745.5 306,-745.5 306,-751.5 300,-757.5 294,-757.5 294,-757.5 178,-757.5 178,-757.5 172,-757.5 166,-751.5 166,-745.5 166,-745.5 166,-648.5 166,-648.5 166,-642.5 172,-636.5 178,-636.5"/>
<text text-anchor="middle" x="236" y="-742.3" font-family="Times,serif" font-size="14.00">Role</text>
<polyline fill="none" stroke="black" points="166,-734.5 306,-734.5 "/>
<text text-anchor="start" x="174" y="-719.3" font-family="Times,serif" font-size="14.00">id :integer</text>
<text text-anchor="start" x="174" y="-704.3" font-family="Times,serif" font-size="14.00">name :varchar</text>
<text text-anchor="start" x="174" y="-689.3" font-family="Times,serif" font-size="14.00">resource_type :varchar</text>
<text text-anchor="start" x="174" y="-674.3" font-family="Times,serif" font-size="14.00">resource_id :integer</text>
<text text-anchor="start" x="174" y="-659.3" font-family="Times,serif" font-size="14.00">created_at :datetime</text>
<text text-anchor="start" x="174" y="-644.3" font-family="Times,serif" font-size="14.00">updated_at :datetime</text>
</g>
<!-- Conversation&#45;&gt;Role -->
<g id="edge2" class="edge"><title>Conversation&#45;&gt;Role</title>
<path fill="none" stroke="#a0ca26" d="M280.055,-789.128C276.522,-781.819 272.89,-774.306 269.299,-766.88"/>
<ellipse fill="none" stroke="#a0ca26" cx="281.932" cy="-793.01" rx="4.00002" ry="4.00002"/>
<polygon fill="#a0ca26" stroke="#a0ca26" points="269.137,-766.543 268.836,-755.582 266.961,-762.042 264.784,-757.54 264.784,-757.54 264.784,-757.54 266.961,-762.042 260.733,-759.499 269.137,-766.543 269.137,-766.543"/>
</g>
<!-- Post -->
<g id="node3" class="node"><title>Post</title>
<path fill="none" stroke="black" d="M65.5,-23C65.5,-23 172.5,-23 172.5,-23 178.5,-23 184.5,-29 184.5,-35 184.5,-35 184.5,-117 184.5,-117 184.5,-123 178.5,-129 172.5,-129 172.5,-129 65.5,-129 65.5,-129 59.5,-129 53.5,-123 53.5,-117 53.5,-117 53.5,-35 53.5,-35 53.5,-29 59.5,-23 65.5,-23"/>
<text text-anchor="middle" x="119" y="-113.8" font-family="Times,serif" font-size="14.00">Post</text>
<polyline fill="none" stroke="black" points="53.5,-106 184.5,-106 "/>
<text text-anchor="start" x="61.5" y="-90.8" font-family="Times,serif" font-size="14.00">id :integer</text>
<text text-anchor="start" x="61.5" y="-75.8" font-family="Times,serif" font-size="14.00">post :text</text>
<text text-anchor="start" x="61.5" y="-60.8" font-family="Times,serif" font-size="14.00">created_at :datetime</text>
<text text-anchor="start" x="61.5" y="-45.8" font-family="Times,serif" font-size="14.00">updated_at :datetime</text>
<text text-anchor="start" x="61.5" y="-30.8" font-family="Times,serif" font-size="14.00">account_id :integer</text>
</g>
<!-- Ability -->
<g id="node5" class="node"><title>Ability</title>
<polygon fill="none" stroke="black" points="392.5,-827 392.5,-873 447.5,-873 447.5,-827 392.5,-827"/>
<text text-anchor="middle" x="420" y="-857.8" font-family="Times,serif" font-size="14.00">Ability</text>
<polyline fill="none" stroke="black" points="392.5,-850 447.5,-850 "/>
<text text-anchor="middle" x="420" y="-834.8" font-family="Times,serif" font-size="14.00"> </text>
</g>
<!-- Account -->
<g id="node9" class="node"><title>Account</title>
<path fill="none" stroke="black" d="M254,-191C254,-191 430,-191 430,-191 436,-191 442,-197 442,-203 442,-203 442,-585 442,-585 442,-591 436,-597 430,-597 430,-597 254,-597 254,-597 248,-597 242,-591 242,-585 242,-585 242,-203 242,-203 242,-197 248,-191 254,-191"/>
<text text-anchor="middle" x="342" y="-581.8" font-family="Times,serif" font-size="14.00">Account</text>
<polyline fill="none" stroke="black" points="242,-574 442,-574 "/>
<text text-anchor="start" x="250" y="-558.8" font-family="Times,serif" font-size="14.00">id :integer</text>
<text text-anchor="start" x="250" y="-543.8" font-family="Times,serif" font-size="14.00">email :varchar</text>
<text text-anchor="start" x="250" y="-528.8" font-family="Times,serif" font-size="14.00">encrypted_password :varchar</text>
<text text-anchor="start" x="250" y="-513.8" font-family="Times,serif" font-size="14.00">reset_password_token :varchar</text>
<text text-anchor="start" x="250" y="-498.8" font-family="Times,serif" font-size="14.00">reset_password_sent_at :datetime</text>
<text text-anchor="start" x="250" y="-483.8" font-family="Times,serif" font-size="14.00">remember_created_at :datetime</text>
<text text-anchor="start" x="250" y="-468.8" font-family="Times,serif" font-size="14.00">created_at :datetime</text>
<text text-anchor="start" x="250" y="-453.8" font-family="Times,serif" font-size="14.00">updated_at :datetime</text>
<text text-anchor="start" x="250" y="-438.8" font-family="Times,serif" font-size="14.00">first_name :varchar</text>
<text text-anchor="start" x="250" y="-423.8" font-family="Times,serif" font-size="14.00">last_name :varchar</text>
<text text-anchor="start" x="250" y="-408.8" font-family="Times,serif" font-size="14.00">username :varchar</text>
<text text-anchor="start" x="250" y="-393.8" font-family="Times,serif" font-size="14.00">birthday :datetime</text>
<text text-anchor="start" x="250" y="-378.8" font-family="Times,serif" font-size="14.00">provider :varchar</text>
<text text-anchor="start" x="250" y="-363.8" font-family="Times,serif" font-size="14.00">uid :varchar</text>
<text text-anchor="start" x="250" y="-348.8" font-family="Times,serif" font-size="14.00">name :varchar</text>
<text text-anchor="start" x="250" y="-333.8" font-family="Times,serif" font-size="14.00">image :text</text>
<text text-anchor="start" x="250" y="-318.8" font-family="Times,serif" font-size="14.00">sign_in_count :integer</text>
<text text-anchor="start" x="250" y="-303.8" font-family="Times,serif" font-size="14.00">current_sign_in_at :datetime</text>
<text text-anchor="start" x="250" y="-288.8" font-family="Times,serif" font-size="14.00">last_sign_in_at :datetime</text>
<text text-anchor="start" x="250" y="-273.8" font-family="Times,serif" font-size="14.00">current_sign_in_ip :varchar</text>
<text text-anchor="start" x="250" y="-258.8" font-family="Times,serif" font-size="14.00">last_sign_in_ip :varchar</text>
<text text-anchor="start" x="250" y="-243.8" font-family="Times,serif" font-size="14.00">posts_count :integer</text>
<text text-anchor="start" x="250" y="-228.8" font-family="Times,serif" font-size="14.00">address :varchar</text>
<text text-anchor="start" x="250" y="-213.8" font-family="Times,serif" font-size="14.00">latitude :float</text>
<text text-anchor="start" x="250" y="-198.8" font-family="Times,serif" font-size="14.00">longitude :float</text>
</g>
<!-- Role&#45;&gt;Account -->
<g id="edge3" class="edge"><title>Role&#45;&gt;Account</title>
<path fill="none" stroke="#bdd43f" d="M260.42,-626.655C262.684,-620.228 265.047,-613.519 267.482,-606.602"/>
<polygon fill="#bdd43f" stroke="#bdd43f" points="260.391,-626.74 252.824,-634.677 258.73,-631.456 257.069,-636.172 257.069,-636.172 257.069,-636.172 258.73,-631.456 261.313,-637.667 260.391,-626.74 260.391,-626.74"/>
<polygon fill="#bdd43f" stroke="#bdd43f" points="267.525,-606.481 275.091,-598.544 269.186,-601.765 270.847,-597.049 270.847,-597.049 270.847,-597.049 269.186,-601.765 266.602,-595.554 267.525,-606.481 267.525,-606.481"/>
</g>
<!-- Like -->
<g id="node7" class="node"><title>Like</title>
<path fill="none" stroke="black" d="M214.5,-23C214.5,-23 321.5,-23 321.5,-23 327.5,-23 333.5,-29 333.5,-35 333.5,-35 333.5,-117 333.5,-117 333.5,-123 327.5,-129 321.5,-129 321.5,-129 214.5,-129 214.5,-129 208.5,-129 202.5,-123 202.5,-117 202.5,-117 202.5,-35 202.5,-35 202.5,-29 208.5,-23 214.5,-23"/>
<text text-anchor="middle" x="268" y="-113.8" font-family="Times,serif" font-size="14.00">Like</text>
<polyline fill="none" stroke="black" points="202.5,-106 333.5,-106 "/>
<text text-anchor="start" x="210.5" y="-90.8" font-family="Times,serif" font-size="14.00">id :integer</text>
<text text-anchor="start" x="210.5" y="-75.8" font-family="Times,serif" font-size="14.00">post_id :integer</text>
<text text-anchor="start" x="210.5" y="-60.8" font-family="Times,serif" font-size="14.00">account_id :integer</text>
<text text-anchor="start" x="210.5" y="-45.8" font-family="Times,serif" font-size="14.00">created_at :datetime</text>
<text text-anchor="start" x="210.5" y="-30.8" font-family="Times,serif" font-size="14.00">updated_at :datetime</text>
</g>
<!-- Reply -->
<g id="node8" class="node"><title>Reply</title>
<path fill="none" stroke="black" d="M363.5,-15.5C363.5,-15.5 470.5,-15.5 470.5,-15.5 476.5,-15.5 482.5,-21.5 482.5,-27.5 482.5,-27.5 482.5,-124.5 482.5,-124.5 482.5,-130.5 476.5,-136.5 470.5,-136.5 470.5,-136.5 363.5,-136.5 363.5,-136.5 357.5,-136.5 351.5,-130.5 351.5,-124.5 351.5,-124.5 351.5,-27.5 351.5,-27.5 351.5,-21.5 357.5,-15.5 363.5,-15.5"/>
<text text-anchor="middle" x="417" y="-121.3" font-family="Times,serif" font-size="14.00">Reply</text>
<polyline fill="none" stroke="black" points="351.5,-113.5 482.5,-113.5 "/>
<text text-anchor="start" x="359.5" y="-98.3" font-family="Times,serif" font-size="14.00">id :integer</text>
<text text-anchor="start" x="359.5" y="-83.3" font-family="Times,serif" font-size="14.00">reply :text</text>
<text text-anchor="start" x="359.5" y="-68.3" font-family="Times,serif" font-size="14.00">created_at :datetime</text>
<text text-anchor="start" x="359.5" y="-53.3" font-family="Times,serif" font-size="14.00">updated_at :datetime</text>
<text text-anchor="start" x="359.5" y="-38.3" font-family="Times,serif" font-size="14.00">post_id :integer</text>
<text text-anchor="start" x="359.5" y="-23.3" font-family="Times,serif" font-size="14.00">account_id :integer</text>
</g>
<!-- Account&#45;&gt;Conversation -->
<g id="edge8" class="edge"><title>Account&#45;&gt;Conversation</title>
<path fill="none" stroke="#7770cb" d="M326.718,-605.241C321.911,-671.38 316.965,-739.428 313.524,-786.759"/>
<ellipse fill="none" stroke="#7770cb" cx="327.014" cy="-601.175" rx="4" ry="4"/>
<polygon fill="#7770cb" stroke="#7770cb" points="313.511,-786.947 308.297,-796.594 313.148,-791.934 312.786,-796.92 312.786,-796.92 312.786,-796.92 313.148,-791.934 317.274,-797.247 313.511,-786.947 313.511,-786.947"/>
<text text-anchor="middle" x="383.5" y="-693.3" font-family="Times,serif" font-size="14.00">sended_conversations</text>
</g>
<!-- Account&#45;&gt;Conversation -->
<g id="edge9" class="edge"><title>Account&#45;&gt;Conversation</title>
<path fill="none" stroke="#00fe67" d="M445.073,-565.394C469.654,-628.494 480.321,-698.988 447,-758 430.922,-786.474 411.37,-778.108 384,-796 383.712,-796.188 383.424,-796.377 383.135,-796.566"/>
<ellipse fill="none" stroke="#00fe67" cx="443.495" cy="-561.451" rx="4.00001" ry="4.00001"/>
<polygon fill="#00fe67" stroke="#00fe67" points="382.994,-796.66 372.175,-798.445 378.829,-799.426 374.665,-802.193 374.665,-802.193 374.665,-802.193 378.829,-799.426 377.154,-805.941 382.994,-796.66 382.994,-796.66"/>
<text text-anchor="middle" x="530.5" y="-693.3" font-family="Times,serif" font-size="14.00">received_conversations</text>
</g>
<!-- Account&#45;&gt;Post -->
<g id="edge4" class="edge"><title>Account&#45;&gt;Post</title>
<path fill="none" stroke="#7dc080" d="M237.233,-244.541C210.529,-206.701 183.308,-168.128 161.727,-137.546"/>
<ellipse fill="none" stroke="#7dc080" cx="239.609" cy="-247.908" rx="4.00002" ry="4.00002"/>
<polygon fill="#7dc080" stroke="#7dc080" points="161.561,-137.311 159.472,-126.546 158.678,-133.225 155.795,-129.14 155.795,-129.14 155.795,-129.14 158.678,-133.225 152.118,-131.735 161.561,-137.311 161.561,-137.311"/>
</g>
<!-- Account&#45;&gt;Like -->
<g id="edge6" class="edge"><title>Account&#45;&gt;Like</title>
<path fill="none" stroke="#591c0d" d="M292.778,-182.809C289.138,-167.265 285.676,-152.481 282.556,-139.157"/>
<ellipse fill="none" stroke="#591c0d" cx="293.699" cy="-186.742" rx="4.00001" ry="4.00001"/>
<polygon fill="#591c0d" stroke="#591c0d" points="282.52,-139.002 284.621,-128.239 281.379,-134.134 280.239,-129.265 280.239,-129.265 280.239,-129.265 281.379,-134.134 275.858,-130.291 282.52,-139.002 282.52,-139.002"/>
</g>
<!-- Account&#45;&gt;Reply -->
<g id="edge5" class="edge"><title>Account&#45;&gt;Reply</title>
<path fill="none" stroke="#e37172" d="M391.958,-182.508C394.943,-169.933 397.809,-157.857 400.468,-146.655"/>
<ellipse fill="none" stroke="#e37172" cx="390.953" cy="-186.745" rx="4.00001" ry="4.00001"/>
<polygon fill="#e37172" stroke="#e37172" points="400.539,-146.353 407.227,-137.663 401.694,-141.488 402.849,-136.624 402.849,-136.624 402.849,-136.624 401.694,-141.488 398.47,-135.584 400.539,-146.353 400.539,-146.353"/>
</g>
<!-- Notification -->
<g id="node11" class="node"><title>Notification</title>
<path fill="none" stroke="black" d="M512.5,-0.5C512.5,-0.5 629.5,-0.5 629.5,-0.5 635.5,-0.5 641.5,-6.5 641.5,-12.5 641.5,-12.5 641.5,-139.5 641.5,-139.5 641.5,-145.5 635.5,-151.5 629.5,-151.5 629.5,-151.5 512.5,-151.5 512.5,-151.5 506.5,-151.5 500.5,-145.5 500.5,-139.5 500.5,-139.5 500.5,-12.5 500.5,-12.5 500.5,-6.5 506.5,-0.5 512.5,-0.5"/>
<text text-anchor="middle" x="571" y="-136.3" font-family="Times,serif" font-size="14.00">Notification</text>
<polyline fill="none" stroke="black" points="500.5,-128.5 641.5,-128.5 "/>
<text text-anchor="start" x="508.5" y="-113.3" font-family="Times,serif" font-size="14.00">id :integer</text>
<text text-anchor="start" x="508.5" y="-98.3" font-family="Times,serif" font-size="14.00">account_id :integer</text>
<text text-anchor="start" x="508.5" y="-83.3" font-family="Times,serif" font-size="14.00">notified_by_id :integer</text>
<text text-anchor="start" x="508.5" y="-68.3" font-family="Times,serif" font-size="14.00">post_id :integer</text>
<text text-anchor="start" x="508.5" y="-53.3" font-family="Times,serif" font-size="14.00">notice_type :varchar</text>
<text text-anchor="start" x="508.5" y="-38.3" font-family="Times,serif" font-size="14.00">read :boolean</text>
<text text-anchor="start" x="508.5" y="-23.3" font-family="Times,serif" font-size="14.00">created_at :datetime</text>
<text text-anchor="start" x="508.5" y="-8.3" font-family="Times,serif" font-size="14.00">updated_at :datetime</text>
</g>
<!-- Account&#45;&gt;Notification -->
<g id="edge7" class="edge"><title>Account&#45;&gt;Notification</title>
<path fill="none" stroke="#1e77fd" d="M446.926,-248.211C468.793,-218.037 491.128,-187.217 510.712,-160.192"/>
<ellipse fill="none" stroke="#1e77fd" cx="444.457" cy="-251.619" rx="4.00002" ry="4.00002"/>
<polygon fill="#1e77fd" stroke="#1e77fd" points="510.83,-160.03 520.342,-154.573 513.764,-155.981 516.698,-151.932 516.698,-151.932 516.698,-151.932 513.764,-155.981 513.054,-149.292 510.83,-160.03 510.83,-160.03"/>
</g>
<!-- ApplicationRecord -->
<g id="node10" class="node"><title>ApplicationRecord</title>
<ellipse fill="none" stroke="black" cx="543" cy="-850" rx="77.0154" ry="18"/>
<text text-anchor="middle" x="543" y="-846.3" font-family="Times,serif" font-size="14.00">ApplicationRecord</text>
</g>
</g>
</svg>
