<?xml version="1.0" encoding="UTF-8" standalone="no"?>
<!DOCTYPE svg PUBLIC "-//W3C//DTD SVG 1.1//EN"
 "http://www.w3.org/Graphics/SVG/1.1/DTD/svg11.dtd">
<!-- Generated by graphviz version 2.36.0 (20140111.2315)
 -->
<!-- Title: models_diagram Pages: 1 -->
<svg width="601pt" height="308pt"
 viewBox="0.00 0.00 601.00 308.00" xmlns="http://www.w3.org/2000/svg" xmlns:xlink="http://www.w3.org/1999/xlink">
<g id="graph0" class="graph" transform="scale(1 1) rotate(0) translate(4 304)">
<title>models_diagram</title>
<polygon fill="none" stroke="none" points="-4,4 -4,-304 597,-304 597,4 -4,4"/>
<!-- _diagram_info -->
<g id="node1" class="node"><title>_diagram_info</title>
<text text-anchor="start" x="8" y="-285.6" font-family="Times,serif" font-size="13.00">Models diagram</text>
<text text-anchor="start" x="8" y="-271.6" font-family="Times,serif" font-size="13.00">Date: Aug 04 2020 &#45; 18:58</text>
<text text-anchor="start" x="8" y="-257.6" font-family="Times,serif" font-size="13.00">Migration version: 20200731115617</text>
<text text-anchor="start" x="8" y="-243.6" font-family="Times,serif" font-size="13.00">Generated by RailRoady 1.5.3</text>
<text text-anchor="start" x="8" y="-229.6" font-family="Times,serif" font-size="13.00">http://railroady.prestonlee.com</text>
</g>
<!-- Conversation -->
<g id="node2" class="node"><title>Conversation</title>
<ellipse fill="none" stroke="black" cx="290" cy="-261" rx="57.2688" ry="18"/>
<text text-anchor="middle" x="290" y="-257.3" font-family="Times,serif" font-size="14.00">Conversation</text>
</g>
<!-- Message -->
<g id="node4" class="node"><title>Message</title>
<ellipse fill="none" stroke="black" cx="161" cy="-166" rx="42.3701" ry="18"/>
<text text-anchor="middle" x="161" y="-162.3" font-family="Times,serif" font-size="14.00">Message</text>
</g>
<!-- Conversation&#45;&gt;Message -->
<g id="edge1" class="edge"><title>Conversation&#45;&gt;Message</title>
<path fill="none" stroke="#764cf9" d="M261.589,-239.518C240.367,-224.218 211.458,-203.377 190.077,-187.963"/>
<ellipse fill="none" stroke="#764cf9" cx="264.872" cy="-241.885" rx="4.00002" ry="4.00002"/>
<polygon fill="#764cf9" stroke="#764cf9" points="189.82,-187.777 184.34,-178.279 185.764,-184.853 181.708,-181.929 181.708,-181.929 181.708,-181.929 185.764,-184.853 179.077,-185.579 189.82,-187.777 189.82,-187.777"/>
</g>
<!-- Role -->
<g id="node6" class="node"><title>Role</title>
<ellipse fill="none" stroke="black" cx="249" cy="-166" rx="26.949" ry="18"/>
<text text-anchor="middle" x="249" y="-162.3" font-family="Times,serif" font-size="14.00">Role</text>
</g>
<!-- Conversation&#45;&gt;Role -->
<g id="edge2" class="edge"><title>Conversation&#45;&gt;Role</title>
<path fill="none" stroke="#1c438d" d="M279.131,-235.346C273.392,-222.329 266.35,-206.355 260.517,-193.125"/>
<ellipse fill="none" stroke="#1c438d" cx="280.866" cy="-239.282" rx="4.00002" ry="4.00002"/>
<polygon fill="#1c438d" stroke="#1c438d" points="260.368,-192.787 260.452,-181.821 258.351,-188.212 256.334,-183.637 256.334,-183.637 256.334,-183.637 258.351,-188.212 252.217,-185.452 260.368,-192.787 260.368,-192.787"/>
</g>
<!-- Post -->
<g id="node3" class="node"><title>Post</title>
<ellipse fill="none" stroke="black" cx="202" cy="-18" rx="27" ry="18"/>
<text text-anchor="middle" x="202" y="-14.3" font-family="Times,serif" font-size="14.00">Post</text>
</g>
<!-- Ability -->
<g id="node5" class="node"><title>Ability</title>
<polygon fill="none" stroke="black" points="420.25,-279 365.75,-279 365.75,-243 420.25,-243 420.25,-279"/>
<text text-anchor="middle" x="393" y="-257.3" font-family="Times,serif" font-size="14.00">Ability</text>
</g>
<!-- Account -->
<g id="node9" class="node"><title>Account</title>
<ellipse fill="none" stroke="black" cx="312" cy="-92" rx="39.9464" ry="18"/>
<text text-anchor="middle" x="312" y="-88.3" font-family="Times,serif" font-size="14.00">Account</text>
</g>
<!-- Role&#45;&gt;Account -->
<g id="edge3" class="edge"><title>Role&#45;&gt;Account</title>
<path fill="none" stroke="#64701b" d="M268.644,-142.55C275.88,-134.28 284.093,-124.894 291.41,-116.532"/>
<polygon fill="#64701b" stroke="#64701b" points="268.639,-142.556 258.667,-147.118 265.346,-146.319 262.054,-150.082 262.054,-150.082 262.054,-150.082 265.346,-146.319 265.44,-153.045 268.639,-142.556 268.639,-142.556"/>
<polygon fill="#64701b" stroke="#64701b" points="291.504,-116.424 301.476,-111.861 294.797,-112.661 298.089,-108.898 298.089,-108.898 298.089,-108.898 294.797,-112.661 294.702,-105.935 291.504,-116.424 291.504,-116.424"/>
</g>
<!-- Like -->
<g id="node7" class="node"><title>Like</title>
<ellipse fill="none" stroke="black" cx="274" cy="-18" rx="27" ry="18"/>
<text text-anchor="middle" x="274" y="-14.3" font-family="Times,serif" font-size="14.00">Like</text>
</g>
<!-- Reply -->
<g id="node8" class="node"><title>Reply</title>
<ellipse fill="none" stroke="black" cx="351" cy="-18" rx="31.2735" ry="18"/>
<text text-anchor="middle" x="351" y="-14.3" font-family="Times,serif" font-size="14.00">Reply</text>
</g>
<!-- Account&#45;&gt;Conversation -->
<g id="edge8" class="edge"><title>Account&#45;&gt;Conversation</title>
<path fill="none" stroke="#37c72f" d="M308.642,-118.489C304.591,-149.242 297.805,-200.75 293.634,-232.412"/>
<ellipse fill="none" stroke="#37c72f" cx="309.185" cy="-114.365" rx="4.00001" ry="4.00001"/>
<polygon fill="#37c72f" stroke="#37c72f" points="293.578,-232.843 287.81,-242.169 292.925,-237.8 292.272,-242.757 292.272,-242.757 292.272,-242.757 292.925,-237.8 296.733,-243.345 293.578,-232.843 293.578,-232.843"/>
<text text-anchor="middle" x="363.5" y="-162.3" font-family="Times,serif" font-size="14.00">sended_conversations</text>
</g>
<!-- Account&#45;&gt;Conversation -->
<g id="edge9" class="edge"><title>Account&#45;&gt;Conversation</title>
<path fill="none" stroke="#47d290" d="M356.187,-101.919C381.607,-109.56 411.494,-123.397 427,-148 435.531,-161.536 435.181,-170.25 427,-184 408.899,-214.422 387.953,-204.823 357,-222 346.6,-227.772 335.339,-234.12 325.07,-239.947"/>
<ellipse fill="none" stroke="#47d290" cx="352.312" cy="-100.827" rx="4.00001" ry="4.00001"/>
<polygon fill="#47d290" stroke="#47d290" points="325.041,-239.964 314.124,-240.995 320.695,-242.435 316.348,-244.907 316.348,-244.907 316.348,-244.907 320.695,-242.435 318.573,-248.818 325.041,-239.964 325.041,-239.964"/>
<text text-anchor="middle" x="496.5" y="-162.3" font-family="Times,serif" font-size="14.00">received_conversations</text>
</g>
<!-- Account&#45;&gt;Post -->
<g id="edge4" class="edge"><title>Account&#45;&gt;Post</title>
<path fill="none" stroke="#9d27ec" d="M283.55,-72.3782C266.87,-61.4602 245.903,-47.7367 229.407,-36.9389"/>
<ellipse fill="none" stroke="#9d27ec" cx="286.921" cy="-74.5845" rx="4.00002" ry="4.00002"/>
<polygon fill="#9d27ec" stroke="#9d27ec" points="229.124,-36.7542 223.222,-27.5124 224.941,-34.0159 220.757,-31.2776 220.757,-31.2776 220.757,-31.2776 224.941,-34.0159 218.293,-35.0427 229.124,-36.7542 229.124,-36.7542"/>
</g>
<!-- Account&#45;&gt;Like -->
<g id="edge6" class="edge"><title>Account&#45;&gt;Like</title>
<path fill="none" stroke="#3bf313" d="M299.332,-66.9981C295.442,-59.6274 291.152,-51.4991 287.226,-44.0595"/>
<ellipse fill="none" stroke="#3bf313" cx="301.319" cy="-70.7632" rx="4.00002" ry="4.00002"/>
<polygon fill="#3bf313" stroke="#3bf313" points="287.172,-43.9572 286.484,-33.0129 284.838,-39.5353 282.504,-35.1134 282.504,-35.1134 282.504,-35.1134 284.838,-39.5353 278.525,-37.2138 287.172,-43.9572 287.172,-43.9572"/>
</g>
<!-- Account&#45;&gt;Reply -->
<g id="edge5" class="edge"><title>Account&#45;&gt;Reply</title>
<path fill="none" stroke="#45b9ec" d="M324.943,-67.1055C328.875,-59.846 333.21,-51.8431 337.197,-44.4831"/>
<ellipse fill="none" stroke="#45b9ec" cx="322.951" cy="-70.7836" rx="4.00002" ry="4.00002"/>
<polygon fill="#45b9ec" stroke="#45b9ec" points="337.241,-44.4016 345.96,-37.752 339.622,-40.0051 342.004,-35.6087 342.004,-35.6087 342.004,-35.6087 339.622,-40.0051 338.047,-33.4654 337.241,-44.4016 337.241,-44.4016"/>
</g>
<!-- Notification -->
<g id="node11" class="node"><title>Notification</title>
<ellipse fill="none" stroke="black" cx="454" cy="-18" rx="52.9443" ry="18"/>
<text text-anchor="middle" x="454" y="-14.3" font-family="Times,serif" font-size="14.00">Notification</text>
</g>
<!-- Account&#45;&gt;Notification -->
<g id="edge7" class="edge"><title>Account&#45;&gt;Notification</title>
<path fill="none" stroke="#393b32" d="M344.996,-74.2695C366.35,-63.442 394.208,-49.3173 416.415,-38.0573"/>
<ellipse fill="none" stroke="#393b32" cx="341.283" cy="-76.1524" rx="4.00002" ry="4.00002"/>
<polygon fill="#393b32" stroke="#393b32" points="416.632,-37.9473 427.586,-37.4385 421.091,-35.6861 425.551,-33.4249 425.551,-33.4249 425.551,-33.4249 421.091,-35.6861 423.516,-29.4113 416.632,-37.9473 416.632,-37.9473"/>
</g>
<!-- ApplicationRecord -->
<g id="node10" class="node"><title>ApplicationRecord</title>
<ellipse fill="none" stroke="black" cx="516" cy="-261" rx="77.0154" ry="18"/>
<text text-anchor="middle" x="516" y="-257.3" font-family="Times,serif" font-size="14.00">ApplicationRecord</text>
</g>
</g>
</svg>
